<?xml version="1.0" encoding="UTF-8" standalone="no"?><svg xmlns="http://www.w3.org/2000/svg" xmlns:xlink="http://www.w3.org/1999/xlink" fill="#b5651d" height="28" preserveAspectRatio="xMidYMid meet" version="1" viewBox="6.0 4.0 26.0 28.0" width="26" zoomAndPan="magnify"><g id="change1_1"><path d="M 6 4 L 6 28 L 17.087891 28 C 18.477015 30.384094 21.05638 32 24 32 C 28.4 32 32 28.4 32 24 C 32 20.291044 29.438915 17.160607 26 16.265625 L 26 4 L 6 4 z M 8 6 L 24 6 L 24 16 C 19.6 16 16 19.6 16 24 C 16 24.691044 16.098874 25.35927 16.265625 26 L 8 26 L 8 6 z M 10 10 L 10 12 L 22 12 L 22 10 L 10 10 z M 10 16 L 10 18 L 16.013672 18 C 16.583672 17.242 17.258578 16.569 18.017578 16 L 10 16 z M 24 18 C 27.3 18 30 20.7 30 24 C 30 27.3 27.3 30 24 30 C 20.7 30 18 27.3 18 24 C 18 20.7 20.7 18 24 18 z M 10 20 L 10 22 L 14.201172 22 C 14.342172 21.304 14.559891 20.636 14.837891 20 L 10 20 z M 27 21.300781 L 23.699219 24.599609 L 21.400391 22.300781 L 20 23.699219 L 23.699219 27.400391 L 28.400391 22.699219 L 27 21.300781 z" fill="inherit"/></g></svg>