<?xml version="1.0" encoding="UTF-8" standalone="no"?><svg xmlns="http://www.w3.org/2000/svg" xmlns:xlink="http://www.w3.org/1999/xlink" fill="#ffffff" height="914.7" preserveAspectRatio="xMidYMid meet" version="1" viewBox="42.2 43.1 914.9 914.7" width="914.9" zoomAndPan="magnify"><g id="change1_1"><path d="M482.9,492.6c10.7,3.9,16.6,11.4,17.4,23.5c4.7-10.9,12.7-15.9,24.1-16.2c-6.4-2.4-11.4-6.4-14.3-12.6 c-3-6.4-3-12.8-0.1-19.3c4.9-10.7,16.7-16,27.9-12.6c10.9,3.3,17.7,14.4,15.9,26c-1.4,9-9.6,20.2-25.7,19.2 c6.2,2,11.4,5.4,14.8,11.1c3.4,5.7,4.1,11.9,2.4,18.2c-2.9,10.5-12.7,17.7-24.3,17c-11.3-0.7-19.2-8.8-22-23.2 c-3,6.8-7.5,11.7-14.4,14.1c-5.2,1.9-10.4,2-15.6,0.1c-11.9-4.3-16.9-15.5-15.9-24.2c1.5-13.2,9.6-20.2,24.9-22 c-13.9-6.6-19.6-17.7-15.6-29.9c3.8-11.3,15.3-18,26.7-15.7c12.3,2.6,19.6,13.4,18.8,24.6C506.9,483.5,496.3,493.1,482.9,492.6z"/><path d="M408.2,507.2c0-12.2,9.8-21.9,22-21.9c12.1,0,22.2,9.9,21.9,22c-0.2,12.5-9.7,21.8-22.1,21.9 C417.9,529.4,408.2,519.4,408.2,507.2z"/><path d="M490.2,562c-0.1,12-10.1,22-22.2,21.8c-11.8-0.1-22-10.2-21.8-21.9c0.3-15.2,12.8-22.3,22.2-22.1 C480.6,540,490.3,549.7,490.2,562z"/><path d="M416.7,461.1c0-12.2,9.4-21.6,21.6-21.6c12.3,0,22,9.7,21.9,21.8c-0.1,11.8-10.1,21.7-21.9,21.6 C426.2,482.9,416.8,473.3,416.7,461.1z"/><path d="M514.5,591.3c-12.3,0-22-9.6-21.9-21.8c0-11.8,10.1-21.7,21.9-21.7c12.1,0.1,21.6,9.7,21.6,21.8 C536.1,581.8,526.6,591.3,514.5,591.3z"/><path d="M569.1,510.5c11.8,0.1,21.3,9.7,21.2,21.4c-0.1,11.8-10,21.6-21.8,21.4c-13.6-0.3-21.5-12-21.1-21.9 C547.9,519.6,557.1,510.4,569.1,510.5z"/><path d="M514.2,423.4c-0.1,11.7-9.8,21.3-21.5,21.1c-11.8-0.2-21.6-10.1-21.3-21.9c0.3-13.8,12.3-21.2,21.7-21.1 C504.3,401.7,514.7,411.4,514.2,423.4z"/><path d="M576.9,507c-11.6-0.1-21.2-9.7-21.1-21.2c0-11.8,10-21.6,21.7-21.5c11.7,0.1,21.1,9.8,21,21.7 C598.3,497.8,588.8,507.1,576.9,507z"/><path d="M538.9,452.5c-11.8,0-21.2-9.5-21.2-21.4c0-11.6,9.5-21.2,21.1-21.3c11.7-0.1,21.8,9.8,21.6,21.5 C560,444.6,549.4,452.8,538.9,452.5z"/><path d="M422.2,532.6c11.3,0,20.8,9.4,20.8,20.7c0,11.2-8.4,21.2-21,21.1c-11.9-0.1-20.5-9.1-20.7-20.8 C401,542,410.7,532.6,422.2,532.6z"/><path d="M560.8,557.7c11.5,0,20.4,8.9,20.4,20.4c0,11.4-9.1,20.5-20.5,20.4c-10.9-0.1-20.3-9.5-20.3-20.4 C540.4,566.7,549.4,557.7,560.8,557.7z"/><path d="M446.6,394.4c11.5,0,20.4,8.9,20.4,20.4c0,11.4-9.1,20.5-20.4,20.5c-10.9,0-20.3-9.4-20.4-20.4 C426.2,403.5,435.2,394.4,446.6,394.4z"/><path d="M605.1,439.2c0,11.3-8.6,20-19.8,20.1c-11.3,0-20.3-8.9-20.3-20.1c0-10.8,9.3-20.1,20.1-20.1 C596.1,419.1,605,428.1,605.1,439.2z"/><path d="M480.2,607.7c0,11-9,20.1-20,20c-10.8,0-20-9.1-19.8-19.9c0.2-11.1,8.7-19.7,19.9-19.9 C471.1,587.7,480.2,596.9,480.2,607.7z"/><path d="M384.1,518.9c-11,0-20.1-9.1-20-20.1c0.1-10.8,9.2-19.7,20.1-19.6c10.7,0.1,19.6,9,19.7,19.7 C403.9,509.6,394.8,518.8,384.1,518.9z"/><path d="M411.9,452.9c0,11.1-8.7,19.6-19.9,19.6c-10.7-0.1-19.7-9.1-19.5-19.7c0.1-10.9,9.2-19.9,20.1-19.7 C403.9,433.3,412.4,443,411.9,452.9z"/><path d="M506.4,635.8c-9.9,0.5-19.6-8.1-19.8-19.5c-0.1-10.8,8.9-20,19.8-20c11.4,0,20,9.8,19.7,19.9 C525.8,627.3,517.4,635.8,506.4,635.8z"/><path d="M596,539.7c0-10.7,8.6-19.1,19.2-19.1c10.6,0,19.5,8.8,19.4,19.4c0,10.3-9.1,19.3-19.4,19.3 C604.7,559.2,596,550.3,596,539.7z"/><path d="M500.9,396.1c-10.6-0.1-19-8.6-19-19.4c0-10.6,9-19.5,19.5-19.3c10.3,0.1,19.3,9.3,19.1,19.5 C520.4,387.6,511.6,396.2,500.9,396.1z"/><path d="M623.4,512.9c-10.7,0-19.3-8.7-19.3-19.4c0-8.6,6.6-19,19.4-19.1c11.1,0,19,8.4,19.2,19.2 C642.7,504.2,633.8,512.9,623.4,512.9z"/><path d="M547.3,404.1c-8.8,0.2-19.1-6.6-19.4-19.4c-0.2-10.2,8.7-19.2,19-19.1c12.8,0.1,19.6,10.5,19.5,19.3 C566.4,395.4,557.9,404,547.3,404.1z"/><path d="M357,545.4c0-10.8,8.4-19,19.2-18.9c10.5,0.1,19,8.7,18.9,19.1c-0.1,10.5-8.9,19.3-19.4,19.1 C364.4,564.4,356.5,554.8,357,545.4z"/><path d="M394.9,600c0-10.8,8.3-19.1,19.1-19.1c10.5,0,19.1,8.5,19,18.9c0,10.5-8.8,19.2-19.3,19.2C403.3,619,394.9,610.5,394.9,600 z"/><path d="M381.6,406.8c0-10.4,8.4-18.9,18.6-19c10.2,0,18.9,8.5,18.9,18.7c0.1,10.2-8.4,18.7-18.7,18.8 C389.7,425.4,381.6,417.4,381.6,406.8z"/><path d="M571.3,624.1c0,10.4-8.4,18.9-18.7,18.9c-10.2,0-18.8-8.6-18.8-18.8c0-10.2,8.5-18.7,18.9-18.7 C563.2,605.5,571.3,613.5,571.3,624.1z"/><path d="M607.4,567.7c10.2,0.1,18.3,8.5,18.2,18.8c-0.1,10.2-8.5,18.5-18.7,18.5c-10.1,0-18.9-8.9-18.7-19 C588.5,575.7,596.9,567.6,607.4,567.7z"/><path d="M436.1,368.7c0-10.3,8.2-18.6,18.5-18.7c10.3-0.1,18.9,8.5,18.8,18.8c-0.1,9.9-8.8,18.5-18.6,18.4 C444.6,387.2,436.1,378.8,436.1,368.7z"/><path d="M631.6,465.8c-10.3,0-18.3-8-18.3-18.2c0-10,8.4-18.5,18.2-18.5c10,0.1,18.3,8.4,18.5,18.4 C650.1,457.4,641.6,465.8,631.6,465.8z"/><path d="M611.7,393.1c0,10.3-8,18.3-18.2,18.3c-10,0-18.5-8.3-18.5-18.2c0-10.1,8.7-18.6,18.7-18.5 C603.5,374.8,611.7,383.2,611.7,393.1z"/><path d="M385.3,591.8c-0.1,9.9-7.8,17.5-17.8,17.5c-9.7,0-17.7-8.1-17.6-17.8c0.1-9.5,8.5-17.8,18-17.6 C377.6,574,385.4,581.9,385.3,591.8z"/><path d="M469.6,654.5c-0.2,9.5-8.2,17.3-17.9,17.1c-9.6-0.1-17.4-8.1-17.4-17.7c0-9.4,8.4-17.6,17.7-17.6 C461.9,636.3,469.8,644.4,469.6,654.5z"/><path d="M337.8,473.4c9.6,0,17.6,7.8,17.6,17.5c0,9.9-7.8,17.8-17.6,17.9c-9.3,0.1-17.8-8.2-17.7-17.6 C320.4,479.9,329.1,473.4,337.8,473.4z"/><path d="M480.6,662.3c0-9.8,8-17.7,17.8-17.6c9.5,0.1,17.5,8.2,17.4,17.7c-0.1,9.4-8.4,17.6-17.7,17.5 C488.4,679.8,480.6,671.9,480.6,662.3z"/><path d="M346.1,462.5c-9.8,0-17.7-8-17.6-17.8c0.1-9.5,8.2-17.5,17.7-17.4c9.4,0.1,17.6,8.4,17.5,17.7 C363.6,454.6,355.7,462.5,346.1,462.5z"/><path d="M408.4,343.3c9.7,0,17.3,7.5,17.4,17.2c0.1,9.5-7.8,17.5-17.2,17.5c-9.5,0-17.6-8.2-17.5-17.6 C391.2,351.1,399.1,343.3,408.4,343.3z"/><path d="M598.8,649.7c-9.7,0-17.3-7.5-17.4-17.1c-0.1-9.5,7.8-17.5,17.1-17.5c9.5,0,17.6,8.1,17.5,17.6 C616,641.9,608.2,649.7,598.8,649.7z"/><path d="M406,663c-9.6,0-17-7.3-17.1-16.9c0-9.5,7.4-17.1,16.9-17.2c9.2-0.1,17.2,7.8,17.2,17C423,655.4,415.5,663,406,663z"/><path d="M661.8,531.1c9.4,0.1,17,7.9,16.8,17.3c-0.2,9.1-8,16.9-17.1,16.8c-9.6,0-17.1-7.7-17-17.4 C644.6,538.3,652.1,531.1,661.8,531.1z"/><path d="M526.1,330.7c0,9.6-7.4,17-17,17c-9.5,0-17.1-7.5-17.1-17c-0.1-9.2,7.9-17.2,17.1-17.1 C518.6,313.6,526.1,321.2,526.1,330.7z"/><path d="M669.4,518.9c-9.4,0-16.9-7.5-16.9-16.8c0-9.5,7.5-17.1,17-17.2c9-0.1,17,7.8,17,16.9C686.5,511.3,678.9,518.9,669.4,518.9 z"/><path d="M329.6,554.1c-9.4,0-16.9-7.4-17-16.7c-0.1-9.5,7.4-17.1,16.9-17.3c9-0.1,17,7.7,17.1,16.8 C346.7,546.3,339.1,554.1,329.6,554.1z"/><path d="M555.3,355.6c-9.4,0-16.9-7.4-17-16.7c-0.1-9.5,7.4-17.1,16.9-17.3c9-0.1,17,7.7,17.1,16.8 C572.4,347.8,564.8,355.6,555.3,355.6z"/><path d="M622.6,401.4c0-9.3,7.6-16.9,16.9-16.9c9.2,0,17.1,7.9,17,16.9c-0.1,9.2-7.9,16.9-17,17 C630.5,418.5,622.6,410.6,622.6,401.4z"/><path d="M527.4,670.6c-0.1-9,7.5-16.7,16.6-16.9c9.2-0.1,17,7.4,17.1,16.7c0.1,9.2-7.6,17-16.7,17 C535.1,687.5,527.5,679.9,527.4,670.6z"/><path d="M370.9,398.8c-0.3,9.4-8,16.7-17.3,16.5c-9.2-0.2-16.7-8.3-16.4-17.4c0.4-9.3,8.3-16.7,17.5-16.3 C363.9,382,371.2,389.8,370.9,398.8z"/><path d="M636.6,594.3c-0.1-9,7.4-16.6,16.3-16.7c9.2-0.1,16.9,7.4,16.9,16.5c0,9.1-7.7,16.7-16.7,16.7 C644.2,610.9,636.6,603.4,636.6,594.3z"/><path d="M463.1,305.9c8.9,0,16.5,7.7,16.4,16.6c-0.1,9-7.6,16.4-16.6,16.4c-8.8,0-16.3-7.5-16.4-16.3 C446.4,313.4,453.8,305.9,463.1,305.9z"/><path d="M585.4,346.9c0-9,7.3-16.2,16.3-16.2c9.1,0,16.7,7.5,16.4,16.5c-0.4,9.2-7.1,15.8-16.2,16.1 C592.9,363.6,585.4,356,585.4,346.9z"/><path d="M677.8,471.8c-9.1,0-16.7-7.4-16.4-16.4c0.3-9,6.8-15.8,16.1-16.2c9-0.4,16.5,7.3,16.5,16.3 C694,464.5,686.8,471.8,677.8,471.8z"/><path d="M337.5,583.2c0.1,8.6-7.1,15.9-15.7,16c-8.8,0.1-16.1-7.2-16.1-16c0-8.4,7.4-15.8,15.9-15.9 C330.1,567.2,337.4,574.6,337.5,583.2z"/><path d="M375.3,637.9c-0.1,8.6-7.3,15.8-16,15.7c-8.8-0.1-16.1-7.5-15.8-16.2c0.2-8.5,7.8-15.8,16.2-15.6 C368.3,621.9,375.4,629.3,375.3,637.9z"/><path d="M590.6,694.1c-8.4,0-15.5-7-15.6-15.4c-0.1-8.6,7.2-15.9,15.8-15.9c8.5,0,15.5,7.2,15.5,15.8 C606.3,687.3,599.3,694.2,590.6,694.1z"/><path d="M378,352.4c0,8.4-7,15.5-15.4,15.6c-8.6,0.1-15.9-7.2-15.9-15.8c0-8.5,7.2-15.6,15.8-15.5C371.1,336.8,378,343.8,378,352.4 z"/><path d="M645.2,655.7c-8.6,0-15.3-6.7-15.3-15.4c0-8.5,7-15.5,15.4-15.4c8.4,0.1,15.4,7.1,15.4,15.5 C660.7,648.8,653.7,655.7,645.2,655.7z"/><path d="M416.7,298.8c8.5,0,15.6,6.8,15.6,15.2c0,8.5-7.2,15.7-15.7,15.6c-8.3-0.1-15.1-7-15.2-15.3 C401.4,305.6,408.1,298.8,416.7,298.8z"/><path d="M314.9,436.8c-0.1,8.3-7,15.1-15.3,15.1c-8.3-0.1-15.3-7.1-15.3-15.2c0.1-8.4,7.3-15.5,15.6-15.3 C308.1,421.4,315,428.5,314.9,436.8z"/><path d="M291.9,467.5c8.3,0.1,15.1,7,15,15.3c-0.1,8.3-7.1,15.3-15.3,15.2c-8.4-0.1-15.5-7.3-15.3-15.6 C276.5,474.2,283.6,467.4,291.9,467.5z"/><path d="M443.7,685.2c8.3,0,15.2,6.8,15.3,15.1c0,8.3-6.8,15.4-15,15.4c-8.3,0.1-15.5-7-15.5-15.4 C428.4,692.3,435.4,685.3,443.7,685.2z"/><path d="M505.4,708.3c0,8.3-6.8,15.4-15,15.5c-8.3,0.1-15.5-7-15.6-15.3c-0.1-8.1,7-15.2,15.3-15.2 C498.5,693.1,505.4,700,505.4,708.3z"/><path d="M647.8,339.9c8.7,0,15.1,6.4,15,15.1c0,8.4-6.8,15.2-15.2,15.1c-8.1-0.1-15-7-15-15.1C632.6,346.6,639.4,339.9,647.8,339.9 z"/><path d="M671,409.5c0-8.7,6.4-15.1,15-15.1c8.5,0,15.2,6.7,15.2,15.1c0,8.1-6.9,15-15,15.1C677.8,424.6,671,417.9,671,409.5z"/><path d="M397.7,677.3c8,0.1,14.8,6.9,14.7,14.9c0,8.1-6.7,14.8-14.7,14.9c-8.1,0.1-15-6.8-15.1-14.9 C382.6,684.1,389.5,677.2,397.7,677.3z"/><path d="M283.5,543.5c-8.3,0-14.8-6.3-14.8-14.6c0-8.3,6.5-14.9,14.6-14.9c8,0,14.8,6.7,14.9,14.7 C298.3,536.8,291.7,543.5,283.5,543.5z"/><path d="M707.5,541.8c8,0,14.7,6.5,14.8,14.4c0.1,8-6.7,14.9-14.7,15c-7.8,0.1-14.6-6.6-14.7-14.5 C692.9,548.3,699.2,541.8,707.5,541.8z"/><path d="M532,284.2c0,8-6.5,14.7-14.4,14.8c-8,0.1-14.9-6.7-15-14.7c-0.1-7.8,6.6-14.6,14.5-14.6C525.5,269.6,532,275.9,532,284.2z"/><path d="M536.3,731.3c-8.3,0-14.7-6.4-14.6-14.8c0-8,6.7-14.7,14.6-14.6c8,0.1,14.8,6.9,14.8,14.9 C551,724.8,544.3,731.3,536.3,731.3z"/><path d="M730.5,509.8c0.1,8-6.4,14.7-14.3,14.9c-7.9,0.1-14.9-6.6-15-14.6c-0.2-7.8,6.5-14.6,14.5-14.7 C723.9,495.2,730.4,501.6,730.5,509.8z"/><path d="M548.9,292.1c0.1-7.7,6.9-14.3,14.6-14.3c8.1,0,15.1,7.2,14.8,15.2c-0.3,8-7,14.3-15,14.2C555,307,548.8,300.5,548.9,292.1 z"/><path d="M293.4,390.4c0.1-8.1,6.6-14.5,14.7-14.5c7.8,0,14.7,6.9,14.6,14.7c-0.2,7.9-6.9,14.6-14.7,14.6 C300.1,405.1,293.3,398.2,293.4,390.4z"/><path d="M313.3,615.5c8,0,14.3,6.4,14.3,14.3c0,8-6.5,14.5-14.3,14.4c-7.8-0.1-14.4-6.7-14.4-14.4 C298.8,622,305.3,615.5,313.3,615.5z"/><path d="M685,602.5c0.1-7.9,6.5-14.2,14.4-14.2c7.7,0.1,14.2,6.5,14.2,14.2c0,7.7-6.6,14.4-14.4,14.5 C691.5,617,685,610.4,685,602.5z"/><path d="M471,290.5c-7.9,0-14.3-6.4-14.3-14.3c0-7.8,6.3-14.2,14-14.3c7.8-0.1,14.7,6.7,14.6,14.6 C485.2,284.2,478.8,290.5,471,290.5z"/><path d="M737.8,463.9c-0.1,7.9-6.2,13.9-14.2,13.9c-7.7-0.1-14.1-6.6-13.9-14.3c0.2-7.4,6.8-13.9,14.2-13.8 C731.6,449.8,737.9,456.1,737.8,463.9z"/><path d="M623.7,300.4c0,8-6,14.1-14,14.1c-7.8,0-14.2-6.3-14.2-14c0-7.4,6.5-14,13.9-14.1C617.2,286.3,623.6,292.6,623.7,300.4z"/><path d="M650.8,686.9c0,7.7-6.2,13.9-13.9,13.9c-7.8,0-14.2-6.4-14.1-14.1c0.1-7.3,6.5-13.8,13.8-13.9 C644.3,672.7,650.8,679.1,650.8,686.9z"/><path d="M365.3,683.8c0,7.6-6.3,13.9-13.9,14c-7.3,0-13.8-6.4-13.9-13.7c-0.1-7.6,6.2-14.1,13.8-14.1 C358.9,669.9,365.3,676.3,365.3,683.8z"/><path d="M289,575.3c0,7.6-6.3,14-13.9,14c-7.6,0-13.9-6.4-13.9-14c0-7.3,6.4-13.8,13.8-13.8C282.6,561.3,289,567.7,289,575.3z"/><path d="M356.5,306.1c0.1-7.6,6.5-13.9,14.1-13.8c7.6,0.1,13.9,6.5,13.8,14.1c-0.1,7.4-6.6,13.8-13.9,13.7 C362.7,320,356.4,313.7,356.5,306.1z"/><path d="M329.5,344.1c0,7.4-6.2,13.5-13.6,13.4c-7.4,0-13.6-6.2-13.6-13.5c0-7.5,6.4-13.8,13.8-13.7 C323.5,330.5,329.5,336.7,329.5,344.1z"/><path d="M693.9,376.8c-7.4,0-13.5-6.1-13.5-13.5c0-7.4,6.2-13.6,13.5-13.6c7.4,0,13.8,6.4,13.7,13.8 C707.5,370.7,701.3,376.8,693.9,376.8z"/><path d="M568.9,724.7c0-7.4,6.1-13.5,13.5-13.6c7.4,0,13.6,6.1,13.7,13.4c0.1,7.4-6.2,13.8-13.7,13.8 C575.1,738.3,568.9,732.1,568.9,724.7z"/><path d="M691.5,635.4c7.3,0,13.2,6.1,13.1,13.4c-0.1,7.4-6.1,13.4-13.3,13.3c-7.3-0.1-13.5-6.4-13.4-13.7 C678,641.2,684.1,635.3,691.5,635.4z"/><path d="M424.7,281.3c-7.3,0-13.2-6-13.2-13.3c0-7.4,6-13.4,13.2-13.4c7.3,0,13.6,6.3,13.5,13.6 C438.2,275.4,432.1,281.3,424.7,281.3z"/><path d="M656.1,321.8c-7.4,0-13-5.7-13-13c0-7.2,6-13.1,13.1-13c6.8,0.1,12.9,6.3,12.9,13C669.2,315.9,663.3,321.8,656.1,321.8z"/><path d="M745.1,417.6c0,7.4-5.6,13-13,13c-7.2,0-13.1-5.9-13-13.1c0-6.8,6.2-12.9,13-13C739.2,404.5,745.1,410.4,745.1,417.6z"/><path d="M257.9,474.7c0,7.2-5.7,12.9-12.7,12.9c-7-0.1-12.8-6-12.8-13c0-6.9,5.7-12.5,12.7-12.6C252.4,462,257.9,467.5,257.9,474.7 z"/><path d="M253.6,415.6c7,0,12.7,5.5,12.8,12.5c0.1,7.1-5.9,13.1-13,13.1c-6.9-0.1-12.5-5.7-12.5-12.8 C240.8,421.1,246.3,415.6,253.6,415.6z"/><path d="M481.9,742.2c7.2,0,12.9,5.7,12.9,12.8c-0.1,7-6,12.8-13,12.8c-6.9,0-12.5-5.7-12.5-12.7 C469.2,747.7,474.6,742.2,481.9,742.2z"/><path d="M448.4,746.7c0,7.2-5.6,12.7-12.9,12.6c-7-0.1-12.6-5.7-12.6-12.7c0-7,5.9-12.9,12.9-12.9 C442.8,733.7,448.5,739.5,448.4,746.7z"/><path d="M317.7,675.9c0,7-5.4,12.3-12.4,12.3c-7,0-12.5-5.6-12.5-12.4c0.1-6.7,5.9-12.5,12.6-12.5 C312.2,663.4,317.7,669,317.7,675.9z"/><path d="M224.9,521c-0.1-7.1,5.3-12.4,12.3-12.5c7,0,12.6,5.4,12.6,12.2c0,6.7-5.7,12.5-12.4,12.6C230.6,533.5,225,528,224.9,521z"/><path d="M389.3,750.7c-7,0-12.4-5.3-12.4-12.4c0-7,5.5-12.6,12.3-12.5c6.7,0,12.5,5.8,12.5,12.5 C401.8,745.1,396.3,750.6,389.3,750.7z"/><path d="M267.2,633.8c-7,0-12.4-5.3-12.4-12.3c0-7,5.4-12.6,12.3-12.6c6.7,0,12.5,5.7,12.6,12.5 C279.7,628.2,274.2,633.8,267.2,633.8z"/><path d="M525.3,225.9c6.6-0.1,12.4,5.7,12.3,12.2c0,6.7-5.5,12.2-12.2,12.3c-6.5,0.1-12.3-5.7-12.3-12.2 C513.1,231.4,518.6,225.9,525.3,225.9z"/><path d="M249.6,382.3c0-6.7,5.4-12.3,12.1-12.4c6.6-0.1,12.4,5.6,12.4,12.1c0,6.8-5.7,12.5-12.5,12.4 C255.2,394.4,249.6,388.7,249.6,382.3z"/><path d="M753.8,576.6c-6.7,0-12.2-5.5-12.3-12.2c-0.1-6.6,5.7-12.4,12.2-12.3c6.7,0,12.2,5.5,12.3,12.2 C766.1,570.8,760.3,576.6,753.8,576.6z"/><path d="M774.3,518.3c0,6.6-5.8,12.3-12.3,12.2c-6.7-0.1-12.2-5.7-12.2-12.4c0-6.5,5.8-12.2,12.4-12.2 C768.8,506.1,774.3,511.6,774.3,518.3z"/><path d="M528,775.1c-6.7,0-12.2-5.5-12.2-12.3c0-6.6,5.7-12.3,12.3-12.3c6.7,0.1,12.2,5.6,12.3,12.3 C540.4,769.4,534.6,775.1,528,775.1z"/><path d="M571.9,234.4c7,0,12,5.3,11.9,12.3c-0.1,6.6-5.5,11.9-12.1,11.9c-6.4,0-12.1-5.7-12.1-12.1 C559.6,239.8,565.1,234.4,571.9,234.4z"/><path d="M324.2,309.9c-6.7,0-12.2-5.5-12.1-12.2c0.1-6.4,5.8-12,12.2-12c6.6,0.1,12,5.4,12,12C336.3,304.7,331.2,309.9,324.2,309.9 z"/><path d="M616.6,733.2c-0.1-7,5-12.2,12-12.2c6.8,0,12.2,5.5,12.2,12.2c-0.1,6.4-5.7,12-12.1,12C622,745.1,616.6,739.8,616.6,733.2z"/><path d="M683,706.8c-6.7,0-12-5.4-11.9-12.1c0-6.6,5.6-12,12.2-11.9c6.2,0.1,11.9,5.8,11.9,12C695.1,701.4,689.6,706.8,683,706.8z"/><path d="M378.5,247.7c6.7-0.1,12.1,5.2,12.1,11.9c0.1,6.6-5.3,12.1-12,12.1c-6.2,0.1-12-5.6-12.1-11.8 C366.5,253.3,371.9,247.8,378.5,247.7z"/><path d="M757.7,610.5c0,6.4-5.4,11.9-11.8,11.9c-6.6,0-12.1-5.5-12-12.1c0-6.2,5.5-11.7,11.7-11.8 C752,598.5,757.6,603.9,757.7,610.5z"/><path d="M490.9,229.9c0,6.7-5.1,11.7-11.8,11.6c-6.3,0-11.7-5.3-11.7-11.6c0-6.5,5.6-12.1,12.1-11.9 C485.8,218.1,490.9,223.5,490.9,229.9z"/><path d="M240.6,567.1c0,6.3-5.3,11.6-11.6,11.5c-6.3,0-11.7-5.3-11.7-11.6c0-6.4,5.5-11.8,11.9-11.8 C235.4,555.4,240.6,560.8,240.6,567.1z"/><path d="M617.9,266c-6.3,0-11.7-5.4-11.7-11.6c0-6.4,5.5-11.8,11.9-11.8c6.2,0.1,11.5,5.5,11.4,11.8 C629.6,260.8,624.3,266,617.9,266z"/><path d="M751.7,371.3c0,6.4-5.2,11.6-11.6,11.6c-6.3,0-11.7-5.3-11.7-11.5c0-6.4,5.5-11.9,11.8-11.8 C746.5,359.5,751.7,364.9,751.7,371.3z"/><path d="M343.3,741.9c-6.4,0-11.8-5.1-11.9-11.4c-0.1-6.4,5.3-11.9,11.7-11.9c6.2-0.1,11.6,5.3,11.6,11.6 C354.8,736.6,349.6,741.9,343.3,741.9z"/><path d="M702.3,305.5c6.4,0,11.6,5.2,11.6,11.6c0,6.3-5.3,11.7-11.5,11.8c-6.4,0-11.9-5.4-11.8-11.8 C690.6,310.8,695.9,305.5,702.3,305.5z"/><path d="M770.2,483.7c-6.3,0-11.5-5.3-11.5-11.7c0.1-6.3,5.4-11.7,11.6-11.7c6.4,0,11.8,5.6,11.7,11.9 C781.9,478.6,776.6,483.8,770.2,483.7z"/><path d="M585.8,771.1c0,6.4-4.9,11.4-11.3,11.4c-6.4,0-11.5-5.1-11.5-11.3c0-6.1,5.3-11.4,11.4-11.5 C580.6,759.6,585.8,764.8,585.8,771.1z"/><path d="M281.1,336c0,6-5.2,11.3-11.1,11.3c-6.2,0-11.4-5.2-11.5-11.4c-0.1-6,5.4-11.3,11.5-11.3 C276.1,324.8,281.1,329.9,281.1,336z"/><path d="M737.7,646c6,0.1,10.8,5,10.8,11.1c-0.1,6.1-5.1,11-11,10.9c-6.1-0.1-11.2-5.4-11-11.4C726.5,650.7,731.5,646,737.7,646z"/><path d="M433.1,232.8c-6.1,0-11-4.8-11-10.9c0-6.1,4.8-11.1,10.8-11.2c6-0.1,11.2,5.1,11.3,11.1 C444.2,227.9,439.2,232.8,433.1,232.8z"/><path d="M258.9,678.3c-6.1,0-10.7-4.6-10.7-10.6c0-5.9,4.9-10.9,10.6-10.8c5.8,0,10.7,4.9,10.8,10.8 C269.7,673.3,264.8,678.3,258.9,678.3z"/><path d="M674.8,262.6c0,6.1-4.6,10.7-10.6,10.7c-5.9,0-10.9-4.9-10.8-10.6c0-5.8,4.9-10.7,10.8-10.8 C669.8,251.8,674.8,256.7,674.8,262.6z"/><path d="M778.2,415c6.1,0,10.7,4.5,10.7,10.6c0,5.9-4.8,10.9-10.6,10.9c-5.8,0-10.7-4.9-10.9-10.7C767.4,419.9,772.3,415,778.2,415 z"/><path d="M220.9,602.9c5.8-0.1,10.4,4.4,10.4,10.2c0,5.6-4.7,10.5-10.2,10.5c-5.5,0-10.4-4.7-10.5-10.3 C210.4,607.8,215.3,602.9,220.9,602.9z"/><path d="M332.6,262c-5.6,0-10.5-4.7-10.5-10.2c0-5.5,4.8-10.4,10.3-10.5c5.5-0.1,10.3,4.7,10.4,10.3 C342.9,257.4,338.4,262,332.6,262z"/><path d="M427.5,803c-5.6,0-10.5-4.8-10.4-10.3c0.1-5.6,4.9-10.3,10.4-10.4c5.5-0.1,10.3,4.8,10.3,10.4 C437.8,798.5,433.2,803,427.5,803z"/><path d="M685.3,741.3c0,5.6-4.8,10.5-10.3,10.4c-5.5,0-10.4-4.8-10.4-10.4c-0.1-5.5,4.8-10.3,10.4-10.3 C680.8,731,685.4,735.5,685.3,741.3z"/><path d="M296.9,711.7c5.6,0,10.5,4.7,10.6,10.2c0,5.7-5,10.6-10.6,10.6c-5.4-0.1-10-4.8-10.1-10.3 C286.6,716.4,291.1,711.8,296.9,711.7z"/><path d="M199.2,456.2c5.4,0.1,10.1,4.8,10.1,10.3c-0.1,5.7-4.9,10.3-10.5,10.2c-5.3-0.1-9.9-4.8-9.9-10.1 C188.9,460.9,193.6,456.2,199.2,456.2z"/><path d="M483.8,801.1c0,5.4-4.8,10.2-10.2,10.1c-5.6-0.1-10.1-4.6-10.2-10.2c-0.1-5.4,4.6-10.2,10.1-10.3 C479.1,790.7,483.8,795.5,483.8,801.1z"/><path d="M207,430.6c-5.5-0.2-10-5.1-9.8-10.5c0.2-5.7,5.2-10.2,10.8-9.9c5.4,0.3,9.8,5,9.6,10.4C217.4,426.2,212.6,430.8,207,430.6 z"/><path d="M620.7,789.1c-5.6,0-10.1-4.4-10.1-10c0-5.6,4.5-10.1,10.1-10.1c5.2,0,10,4.7,10,9.9C630.8,784.6,626.3,789.1,620.7,789.1z"/><path d="M278.3,299.9c-5.7,0.1-10.1-4.3-10.2-9.9c0-5.6,4.4-10.1,10-10.2c5.2-0.1,10,4.6,10.1,9.9 C288.3,295.2,283.9,299.8,278.3,299.9z"/><path d="M748.5,335c-5.3,0-10-4.5-10.1-9.8c-0.1-5.2,4.7-10,9.9-10c5.3,0,9.9,4.6,10,9.9C758.4,330.4,753.9,335,748.5,335z"/><path d="M181.2,512.5c0-5.4,4.6-9.9,10-9.8c5.3,0.1,9.9,4.7,9.9,10c0,5.2-4.9,10-10,9.9C185.7,522.5,181.2,517.9,181.2,512.5z"/><path d="M391.2,784.8c0,5.3-4.6,9.9-9.9,10c-5.2,0-10-4.8-10-10c0.1-5.3,4.6-9.9,10-9.9C386.8,774.8,391.3,779.4,391.2,784.8z"/><path d="M510.4,809c0-5.4,4.2-9.6,9.6-9.6c5.4,0,9.7,4.2,9.9,9.6c0.1,5.2-4.7,10-9.9,9.9C514.6,818.7,510.4,814.3,510.4,809z"/><path d="M387,203.9c5.4,0,9.6,4.2,9.6,9.7c0,5.4-4.3,9.7-9.6,9.8c-5.1,0.1-9.8-4.5-9.9-9.6C377,208.3,381.5,203.9,387,203.9z"/><path d="M215.3,383.5c-5.4,0-9.6-4.2-9.6-9.7c0-5.4,4.3-9.7,9.6-9.8c5.1-0.1,9.8,4.5,9.9,9.6C225.3,379.1,220.8,383.6,215.3,383.5z"/><path d="M739.2,703.1c0,5.5-4.1,9.7-9.6,9.7c-5.5,0-10-4.4-9.9-9.8c0.1-5.1,4.8-9.7,9.9-9.7C734.8,693.3,739.1,697.7,739.2,703.1z"/><path d="M580,209.6c-5.3,0.1-9.8-4.3-9.8-9.7c0-5.2,4.2-9.5,9.5-9.6c4.9-0.2,9.7,4.4,9.8,9.4C589.7,204.9,585.3,209.5,580,209.6z"/><path d="M543.3,191.8c0.1,5.3-4.3,9.8-9.6,9.8c-5.2,0-9.5-4.2-9.7-9.4c-0.2-5.1,4.6-9.9,9.7-9.9 C538.9,182.3,543.2,186.6,543.3,191.8z"/><path d="M798.5,526.2c0.1-5.3,4.5-9.6,9.9-9.5c5.2,0.1,9.4,4.5,9.4,9.7c0,5-4.6,9.6-9.6,9.6C802.9,535.9,798.5,531.5,798.5,526.2z"/><path d="M800.3,563.1c5.3,0.1,9.7,4.6,9.5,9.9c-0.2,5-4.9,9.5-9.8,9.4c-5.3-0.2-9.5-4.5-9.5-9.6C790.6,567.4,795,563,800.3,563.1z"/><path d="M710.2,280c-5.4,0-9.4-4.1-9.3-9.5c0-5.2,4.1-9.3,9.2-9.4c5.2,0,9.5,4.3,9.6,9.5C719.8,275.8,715.6,280,710.2,280z"/><path d="M786.8,388.9c-5.4,0.1-9.5-3.9-9.5-9.3c0-5.3,4.2-9.6,9.4-9.6c5.2,0.1,9.5,4.4,9.5,9.6 C796.1,384.7,791.9,388.8,786.8,388.9z"/><path d="M791.8,609.5c5.1,0,9.4,4.2,9.5,9.1c0,5.1-4.4,9.5-9.5,9.5c-4.9,0-9.2-4.4-9.2-9.4C782.6,613.6,786.6,609.5,791.8,609.5z"/><path d="M496.8,183.8c0,5.2-4.1,9.2-9.3,9.1c-5.1,0-9.4-4.3-9.4-9.2c0-5.1,4.5-9.5,9.6-9.4C492.7,174.4,496.9,178.8,496.8,183.8z"/><path d="M635.1,208.3c-0.1,5.2-4.3,9.3-9.4,9.1c-4.8-0.1-9.1-4.6-8.9-9.4c0.2-5,4.3-8.9,9.3-8.9C631,199.1,635.1,203.3,635.1,208.3 z"/><path d="M825.6,480.1c0,5-4.1,9.1-9,9.1c-5,0-9.1-3.9-9.3-9c-0.1-4.8,4.1-9.2,8.9-9.4C821.3,470.8,825.5,474.9,825.6,480.1z"/><path d="M344.3,776.4c0,5.2-4.2,9.4-9.3,9.3c-4.8-0.1-9.1-4.5-9-9.3c0.1-5,4.1-9,9.2-9.1C340.1,767.3,344.3,771.4,344.3,776.4z"/><path d="M182.6,568.2c-4.9-0.1-9-4.3-8.9-9.3c0.1-5,4.2-9.1,9.2-9.1c4.8,0,9.2,4.4,9.2,9.2C192,564.2,187.8,568.3,182.6,568.2z"/><path d="M221.5,659.7c-0.1,5-4,8.8-8.9,8.8c-4.7,0-8.7-4-8.7-8.7c0-4.9,4.3-9.1,9.2-9C217.7,650.9,221.6,655,221.5,659.7z"/><path d="M223.6,336.5c-5-0.1-8.8-4-8.7-8.9c0-4.7,4-8.7,8.7-8.7c4.9,0,9.1,4.3,9,9.2C232.4,332.7,228.3,336.6,223.6,336.5z"/><path d="M251,722.9c-5,0-8.9-3.8-8.9-8.8c-0.1-4.8,4.1-9,8.9-8.9c4.8,0.1,8.9,4.2,8.8,9C259.7,718.9,255.7,722.9,251,722.9z"/><path d="M557.4,817.2c0.1-5,4-8.8,9-8.7c4.7,0,8.7,4.1,8.7,8.7c0,4.9-4.3,9.1-9.2,9C561.2,826,557.3,821.9,557.4,817.2z"/><path d="M775.1,664.8c0-4.7,3.8-8.4,8.5-8.4c4.6,0,8.5,3.9,8.5,8.4c0.1,4.5-3.9,8.5-8.4,8.6C779.1,673.6,775.1,669.6,775.1,664.8z"/><path d="M441,167.2c4.7,0,8.7,4.1,8.6,8.7c-0.1,4.5-4.2,8.4-8.7,8.3c-4.6-0.1-8.3-4-8.3-8.6C432.6,170.9,436.4,167.2,441,167.2z"/><path d="M340.3,197.3c4.8-0.1,8.4,3.5,8.5,8.3c0,4.6-3.9,8.5-8.4,8.4c-4.3,0-8.3-4-8.2-8.4C332.1,201.1,335.9,197.4,340.3,197.3z"/><path d="M294.3,243.4c0,4.6-3.9,8.4-8.5,8.4c-4.3-0.1-8.3-4.1-8.2-8.4c0.1-4.5,3.8-8.2,8.2-8.3 C290.7,235.1,294.3,238.7,294.3,243.4z"/><path d="M832.7,433.9c0,4.6-3.9,8.5-8.5,8.4c-4.3-0.1-8.3-4.1-8.2-8.4c0.1-4.5,3.8-8.3,8.2-8.3C829,425.6,832.7,429.2,832.7,433.9z"/><path d="M712.9,749.4c-0.1-4.8,3.5-8.4,8.3-8.5c4.5,0,8.2,3.6,8.4,8.1c0.2,4.4-3.9,8.6-8.4,8.5 C716.7,757.6,712.9,753.9,712.9,749.4z"/><path d="M672.4,224.8c-4.6,0-8.4-3.9-8.3-8.5c0.1-4.3,4.1-8.2,8.4-8.2c4.5,0.1,8.2,3.8,8.3,8.3 C680.7,221.2,677.1,224.8,672.4,224.8z"/><path d="M666.7,795.7c-4.8-0.1-8.3-3.7-8.2-8.5c0.1-4.4,3.9-8.1,8.4-8.2c4.3,0,8.3,4,8.3,8.3C675.2,791.9,671.3,795.8,666.7,795.7z"/><path d="M174.7,613.2c-4.4,0-8-3.5-8.1-7.9c0-4.3,3.8-8.1,8-8.1c4.3,0.1,8,3.9,8,8.2C182.5,609.4,178.8,613.1,174.7,613.2z"/><path d="M280.8,768.3c0-4.4,3.5-8,7.9-8.1c4.3,0,8.1,3.8,8.1,8c-0.1,4.3-3.9,8-8.2,8C284.5,776.2,280.8,772.5,280.8,768.3z"/><path d="M802.2,333.5c-0.1,4.4-3.5,7.7-8,7.6c-4.2-0.1-7.6-3.6-7.6-7.7c0-4.2,3.7-7.8,7.9-7.8C798.9,325.5,802.3,329.1,802.2,333.5 z"/><path d="M756.8,286.6c-4.3,0.1-7.9-3.4-7.9-7.7c0-4.2,3.7-7.8,7.9-7.8c4.1,0,7.6,3.4,7.6,7.6C764.5,283.2,761.2,286.6,756.8,286.6z"/><path d="M231.8,289.2c-4.2,0-7.6-3.6-7.5-7.7c0.1-4.2,3.7-7.7,7.7-7.5c4.1,0.1,7.6,3.7,7.5,7.8C239.6,285.8,236,289.2,231.8,289.2z"/><path d="M604.7,825.5c0-4.2,3.5-7.6,7.6-7.5c4.2,0.1,7.7,3.6,7.6,7.6c-0.1,4.1-3.6,7.6-7.7,7.6 C608.2,833.3,604.7,829.7,604.7,825.5z"/><path d="M419.6,831.3c4.2,0,7.6,3.5,7.5,7.7c-0.1,4.2-3.7,7.7-7.7,7.5c-4.1-0.1-7.6-3.7-7.6-7.8 C411.9,834.7,415.4,831.2,419.6,831.3z"/><path d="M152.8,450.8c4.2-0.1,7.4,3,7.5,7.1c0.1,4.2-3.3,7.7-7.4,7.7c-3.9,0-7.4-3.5-7.4-7.4C145.5,454.2,148.8,450.9,152.8,450.8z"/><path d="M387.6,167.4c0-4.2,3.1-7.3,7.3-7.3c4.1,0,7.4,3.2,7.5,7.2c0.1,4-3.6,7.7-7.6,7.6C390.8,174.8,387.6,171.5,387.6,167.4z"/><path d="M783,711.4c0,4.2-3.1,7.3-7.3,7.3c-4.1,0-7.4-3.2-7.5-7.2c-0.1-4,3.6-7.7,7.6-7.6C779.7,704,782.9,707.4,783,711.4z"/><path d="M168.3,412.2c-0.1,4.1-3.3,7.2-7.4,7.2c-4.1-0.1-7.4-3.3-7.4-7.4c0-3.9,3.5-7.4,7.4-7.4C164.9,404.5,168.3,408,168.3,412.2 z"/><path d="M465.8,839.8c4.1,0.1,7.2,3.3,7.2,7.4c-0.1,4.1-3.4,7.3-7.4,7.4c-3.9,0-7.4-3.5-7.4-7.4 C458.1,843.1,461.6,839.8,465.8,839.8z"/><path d="M144.5,511.9c-3.8-0.1-7.1-3.4-7.1-7.3c0-3.8,3.4-7.2,7.2-7.2c3.9,0,7.2,3.3,7.3,7.1C151.9,508.5,148.5,511.9,144.5,511.9z"/><path d="M373.1,823.7c4,0.1,7.3,3.6,7.2,7.6c-0.2,3.8-3.6,7-7.5,6.9c-3.8-0.1-7.1-3.6-7-7.4C365.9,826.9,369.2,823.6,373.1,823.7z"/><path d="M512,848.5c3.9,0.1,6.8,3.2,6.7,7.1c-0.1,3.8-3.4,6.9-7.1,6.9c-3.6-0.1-7-3.5-6.9-7.1C504.7,851.6,508.1,848.4,512,848.5z"/><path d="M169.2,372.9c-3.8,0-7-3.2-7-6.9c0-3.6,3.3-7,6.9-7.1c3.8-0.1,7.1,3.3,7.1,7.2C176.1,369.9,173.1,372.9,169.2,372.9z"/><path d="M832.9,380.7c3.7,0.1,6.9,3.5,6.9,7.1c-0.1,3.9-3.5,7-7.4,6.9c-3.9-0.2-6.8-3.3-6.6-7.2 C825.9,383.8,829.2,380.6,832.9,380.7z"/><path d="M718.3,231.5c-3.9-0.1-6.8-3.2-6.7-7.1c0.1-3.8,3.3-7,7-6.9c3.6,0,7,3.4,7,7C725.6,228.3,722.2,231.6,718.3,231.5z"/><path d="M588.1,160.5c-3.8,0-6.7-2.8-6.7-6.6c0-3.9,3-7,6.9-6.9c3.5,0.1,6.7,3.4,6.7,6.9C594.9,157.6,591.9,160.5,588.1,160.5z"/><path d="M847.6,534.5c0-3.8,2.8-6.7,6.6-6.7c3.9,0,7,3.1,6.9,6.9c-0.1,3.4-3.2,6.5-6.6,6.6C850.7,541.5,847.6,538.4,847.6,534.5z"/><path d="M197.7,705.6c0-3.8,3-6.6,6.8-6.5c3.7,0.1,6.7,3,6.7,6.7c0,3.5-3.2,6.8-6.7,6.8C200.7,712.6,197.7,709.5,197.7,705.6z"/><path d="M534.9,145.5c0-3.8,2.8-6.7,6.7-6.7c3.9,0,7,3.1,6.9,6.9c-0.1,3.4-3.2,6.5-6.6,6.6C538,152.5,534.9,149.4,534.9,145.5z"/><path d="M846.3,587.3c-3.8,0-6.7-2.8-6.7-6.7c0-3.9,3.1-7,6.9-6.9c3.4,0.1,6.5,3.2,6.6,6.6C853.3,584.2,850.2,587.3,846.3,587.3z"/><path d="M173.2,651.3c0,3.6-3.1,6.7-6.8,6.7c-3.4-0.1-6.4-3.2-6.4-6.7c0-3.5,3-6.5,6.6-6.5C170.1,644.8,173.1,647.8,173.2,651.3z"/><path d="M844.6,627.1c0.1,3.5-2.9,6.6-6.4,6.6c-3.5,0.1-6.6-2.9-6.7-6.4c-0.1-3.6,3-6.8,6.6-6.8 C841.5,620.5,844.5,623.6,844.6,627.1z"/><path d="M502.1,137.4c0.1,3.5-2.9,6.7-6.3,6.8c-3.6,0.1-6.8-2.9-6.8-6.6c0-3.4,3-6.5,6.5-6.6C499,130.9,502,133.8,502.1,137.4z"/><path d="M242.5,753.6c3.5-0.1,6.6,2.8,6.7,6.4c0.1,3.5-2.9,6.7-6.3,6.8c-3.6,0.1-6.8-2.9-6.9-6.6 C235.9,756.8,239,753.7,242.5,753.6z"/><path d="M333.3,822.6c0,3.5-2.9,6.3-6.4,6.3c-3.5,0-6.3-2.9-6.3-6.3c0-3.4,2.9-6.3,6.3-6.4C330.1,816.2,333.3,819.4,333.3,822.6z"/><path d="M640.6,162.1c0,3.5-2.9,6.3-6.4,6.3c-3.5,0-6.3-2.9-6.3-6.3c0-3.4,2.9-6.3,6.3-6.4C637.5,155.7,640.7,158.9,640.6,162.1z"/><path d="M719.2,795.2c0.1,3.5-2.7,6.4-6.2,6.5c-3.4,0.1-6.4-2.7-6.5-6.2c-0.1-3.2,3-6.5,6.2-6.5 C716.1,788.9,719.1,791.8,719.2,795.2z"/><path d="M862.8,494.8c-3.4,0.1-6.4-2.7-6.5-6.2c-0.1-3.5,2.6-6.4,6.1-6.5c3.4-0.1,6.4,2.6,6.6,6.1 C869.1,491.4,866.1,494.7,862.8,494.8z"/><path d="M294.3,190.9c3.2-0.1,6.4,3.1,6.4,6.3c0,3.4-2.9,6.3-6.3,6.4c-3.5,0-6.3-2.8-6.4-6.3C288,193.9,290.9,191,294.3,190.9z"/><path d="M143,550.9c0,3.4-3,6.3-6.4,6.3c-3.2,0-6.4-3.3-6.3-6.5c0.1-3.5,3-6.3,6.5-6.2C140.3,544.6,143,547.4,143,550.9z"/><path d="M564.3,863.5c0,3.2-3.2,6.4-6.4,6.3c-3.5-0.1-6.3-3-6.3-6.4c0-3.5,2.9-6.3,6.4-6.3C561.4,857.1,564.3,860,564.3,863.5z"/><path d="M183.5,319.7c0,3.5-2.5,6-6,6.1c-3.3,0-6.1-2.7-6.2-6c0-3.2,2.8-6.2,6.1-6.2C180.7,313.6,183.5,316.4,183.5,319.7z"/><path d="M664.6,833.5c0,3.3-2.8,6.1-6.1,6.1c-3.5,0-6-2.5-6-6c0-3.3,2.8-6.1,6-6.1C661.7,827.4,664.6,830.3,664.6,833.5z"/><path d="M245.9,235.5c0,3.5-2.6,6-6.1,6c-3.3,0-6.1-2.8-6.1-6.1c0-3.2,3-6.1,6.2-6.1C243.2,229.4,246,232.2,245.9,235.5z"/><path d="M348.6,165c-3.2-0.1-5.7-2.9-5.6-6.1c0.1-3,2.8-5.6,5.8-5.6c3.3,0.1,5.9,2.8,5.9,5.9C354.6,162.4,351.7,165.1,348.6,165z"/><path d="M455.2,129.1c0.1,3.3-2.5,6-5.7,6c-3.1,0-5.9-2.7-6-5.9c0-3.2,2.7-5.8,5.9-5.8C452.5,123.4,455.1,126,455.2,129.1z"/><path d="M767.5,751.7c3.2,0.1,5.7,2.9,5.6,6.1c-0.1,3-2.8,5.6-5.8,5.6c-3.3,0-6-2.7-5.9-5.9C761.5,754.3,764.4,751.6,767.5,751.7z"/><path d="M808.7,287.1c0,3.1-2.7,5.9-5.8,6c-3.2,0.1-5.8-2.6-5.9-5.9c0-3,2.6-5.7,5.6-5.8C805.9,281.3,808.7,283.9,808.7,287.1z"/><path d="M830.1,667.4c3.1,0.1,5.9,2.9,5.8,6c0,3.2-2.8,5.8-6.1,5.7c-3-0.1-5.6-2.7-5.6-5.8C824.2,670,826.9,667.3,830.1,667.4z"/><path d="M846.6,341.4c0,3.1-2.6,5.6-5.8,5.6c-2.9-0.1-5.4-2.7-5.4-5.6c0-3,2.8-5.7,5.8-5.6C844.1,335.9,846.6,338.5,846.6,341.4z"/><path d="M680.3,175.7c-2.9,0-5.4-2.6-5.5-5.5c0-3,2.7-5.7,5.7-5.6c2.9,0.1,5.5,2.7,5.5,5.6C686,173.2,683.4,175.7,680.3,175.7z"/><path d="M876.5,442.3c-0.1,3.1-2.7,5.6-5.8,5.5c-2.9-0.1-5.4-2.7-5.4-5.7c0-3,2.9-5.7,5.9-5.5C874.1,436.8,876.5,439.4,876.5,442.3 z"/><path d="M770.3,232.8c0,2.9-2.5,5.5-5.5,5.6c-3,0.1-5.8-2.6-5.7-5.6c0-2.9,2.6-5.5,5.5-5.5C767.7,227.2,770.3,229.7,770.3,232.8z"/><path d="M133.7,596.9c0,2.9-2.3,5.3-5.2,5.4c-2.9,0.1-5.6-2.6-5.5-5.5c0.1-2.9,2.5-5.2,5.4-5.2C131.3,591.6,133.7,594,133.7,596.9z"/><path d="M280.7,820c-3-0.1-5.4-2.6-5.2-5.7c0.1-2.9,2.6-5.1,5.5-5c2.9,0.1,5.2,2.5,5.1,5.4C286,817.5,283.4,820.1,280.7,820z"/><path d="M604.3,876.7c-2.9,0-5-2.2-4.9-5.1c0.1-2.6,2.3-4.9,4.9-4.9c2.8,0,5.1,2.2,5.1,5C609.4,874.4,607.1,876.7,604.3,876.7z"/><path d="M190.5,273.4c-0.1,2.8-2.5,5-5.2,4.9c-2.7-0.1-4.9-2.5-4.8-5.3c0.1-2.9,2.4-4.9,5.3-4.7 C188.5,268.5,190.6,270.8,190.5,273.4z"/><path d="M201.2,752c-0.1,2.6-2.4,4.7-5.1,4.5c-2.6-0.1-4.4-2.2-4.3-4.8c0.1-2.5,2.2-4.6,4.6-4.6C199,747.2,201.3,749.5,201.2,752z"/><path d="M162.9,697.6c0,2.6-2,4.6-4.6,4.6c-2.7,0-4.9-2.2-4.8-4.8c0.1-2.6,2.5-4.8,5-4.7C161,692.8,163,695,162.9,697.6z"/><path d="M403.1,116.5c2.4-0.1,4.6,2,4.8,4.5c0.2,2.7-1.8,4.9-4.6,4.9c-2.5,0-4.7-2-4.9-4.4C398.3,119,400.6,116.6,403.1,116.5z"/><path d="M826.5,719.5c0,2.6-2.4,4.7-5,4.6c-2.6-0.1-4.5-2.2-4.4-4.8c0.1-2.5,2.2-4.7,4.6-4.7C824.2,714.6,826.6,716.9,826.5,719.5z"/><path d="M727.2,174.1c2.4,0.2,4.2,2.4,3.9,4.8c-0.2,2.3-2.3,4.1-4.5,3.9c-2.4-0.2-4.3-2.4-4.2-4.7 C722.6,175.6,724.8,173.8,727.2,174.1z"/><path d="M457.1,889c2.5-0.1,4.5,1.8,4.5,4.2c0.1,2.5-1.9,4.5-4.3,4.5c-2.3,0-4.4-2.2-4.4-4.5C452.9,891,454.8,889.1,457.1,889z"/><path d="M111.1,450.2c0,2.5-2,4.4-4.4,4.3c-2.3,0-4.2-1.9-4.3-4.2c-0.1-2.3,2-4.5,4.3-4.6C109.1,445.7,111.2,447.7,111.1,450.2z"/><path d="M415.6,885.4c-0.1,2.3-2.3,4.4-4.6,4.3c-2.4-0.1-4.3-2.2-4.1-4.7c0.2-2.5,2.2-4.2,4.7-4.1 C413.9,881.2,415.7,883.2,415.6,885.4z"/><path d="M119.1,404.2c-0.1,2.3-1.9,4.2-4.2,4.2c-2.5,0-4.7-2.3-4.5-4.7c0.2-2.3,2.1-4,4.4-4C117.3,399.8,119.2,401.8,119.1,404.2z"/><path d="M878.8,400.1c-2.3,0-4.2-1.8-4.3-4.1c-0.1-2.4,2.2-4.7,4.6-4.6c2.3,0.1,4.1,2,4.1,4.3C883.2,398.2,881.3,400.1,878.8,400.1 z"/><path d="M120.2,647c-2.2,0.1-4-1.6-4.1-3.9c-0.1-2.2,1.7-4.1,3.9-4.1c2.1-0.1,4.1,1.8,4.1,3.9C124.2,645.1,122.4,646.9,120.2,647z"/><path d="M701,841.8c0.1-2.2,1.8-3.9,4.1-3.9c2.2,0,4,1.9,3.9,4.1c0,2.1-2,4-4.1,3.9C702.7,845.8,700.9,844,701,841.8z"/><path d="M759.4,807.6c-2.2,0-4-1.8-4-4c0-2.2,1.9-4,4-4c2.1,0,4,1.9,4,4C763.4,805.9,761.5,807.7,759.4,807.6z"/><path d="M127,357.5c0.1,2.2-1.6,4-3.9,4.1c-2.2,0.1-4.1-1.7-4.1-3.9c-0.1-2.1,1.8-4.1,3.9-4.1C125.1,353.5,127,355.3,127,357.5z"/><path d="M234.1,810.3c-2.2-0.1-3.9-1.9-3.8-4.2c0.1-2.2,2-3.9,4.2-3.9c2.1,0.1,4,2,3.9,4.2C238.2,808.6,236.3,810.4,234.1,810.3z"/><path d="M102.5,496.4c-0.1,2.2-1.8,3.9-4.1,3.9c-2.2-0.1-4-1.9-3.9-4.1c0-2.2,2-4,4.1-3.9C100.8,492.4,102.5,494.3,102.5,496.4z"/><path d="M248.2,193c-2.2,0-3.9-1.8-3.9-4.1c0-2.2,1.9-4,4.1-3.9c2.1,0,4,2,3.9,4.1C252.2,191.2,250.3,193,248.2,193z"/><path d="M302.7,155.1c-2.3,0-4-1.7-4-4c0-2.2,1.8-4,4-4c2.1,0,4,1.9,4,4C306.7,153.3,304.9,155.1,302.7,155.1z"/><path d="M361.1,877.1c0-2.2,1.7-4,3.9-4.1c2.2,0,4,1.7,4.1,3.9c0.1,2.1-1.8,4.1-3.9,4.1C363,881.1,361.1,879.3,361.1,877.1z"/><path d="M507.4,901.7c0,2.2-1.9,4-4,4c-2.1,0-4-1.9-4-4c0-2.2,1.9-4,4.1-4C505.7,897.7,507.4,899.4,507.4,901.7z"/><path d="M892.6,585.3c1.9,0.1,3.5,1.8,3.5,3.7c-0.1,2-1.9,3.7-3.9,3.5c-2-0.1-3.4-1.8-3.3-3.8C889,586.8,890.7,585.3,892.6,585.3z"/><path d="M90.3,538.9c2,0.1,3.7,1.9,3.5,4c-0.2,2-1.8,3.4-3.8,3.2c-1.9-0.1-3.5-1.9-3.4-3.8C86.7,540.4,88.4,538.8,90.3,538.9z"/><path d="M888.1,635c0.1,1.9-1.5,3.6-3.4,3.7c-1.9,0.1-3.6-1.4-3.8-3.4c-0.2-2,1.2-3.7,3.2-3.8C886.2,631.3,888,632.9,888.1,635z"/><path d="M852.6,295.3c-0.1,2-1.9,3.7-4,3.5c-1.8-0.2-3.3-1.7-3.3-3.5c0-2,1.8-3.8,3.8-3.7C851.1,291.7,852.6,293.3,852.6,295.3z"/><path d="M810.6,237.2c2.1-0.1,3.8,1.6,3.8,3.7c0,1.9-1.7,3.6-3.6,3.5c-1.9,0-3.6-1.6-3.6-3.5C807.1,238.9,808.6,237.3,810.6,237.2z"/><path d="M193.7,230.8c-2-0.1-3.7-1.9-3.5-4c0.2-1.8,1.7-3.3,3.5-3.3c2,0,3.8,1.8,3.7,3.8C197.3,229.3,195.7,230.8,193.7,230.8z"/><path d="M318.5,872.7c-2-0.1-3.7-1.9-3.6-3.9c0.1-1.8,1.7-3.3,3.5-3.3c2,0,3.8,1.7,3.7,3.8C322.1,871.2,320.5,872.7,318.5,872.7z"/><path d="M650.6,883.3c-2,0-3.8-1.7-3.8-3.7c0-1.8,1.5-3.3,3.3-3.5c2-0.1,3.8,1.6,3.9,3.6C654.1,881.7,652.6,883.2,650.6,883.3z"/><path d="M503.9,87.8c2,0,3.5,1.6,3.5,3.6c0,2-1.9,3.7-3.9,3.6c-1.8-0.1-3.3-1.7-3.3-3.5C500.1,89.5,501.9,87.8,503.9,87.8z"/><path d="M596,104c2,0,3.7,1.8,3.6,3.9c-0.1,2-1.8,3.5-3.7,3.3c-1.9-0.1-3.5-1.8-3.5-3.7C592.4,105.7,594.1,104,596,104z"/><path d="M904.3,542.7c0,2-1.8,3.8-3.8,3.7c-1.8-0.1-3.3-1.6-3.4-3.4c-0.1-2,1.6-3.8,3.7-3.8C902.8,539.2,904.3,540.8,904.3,542.7z"/><path d="M549.7,95.8c2.1-0.1,3.8,1.6,3.8,3.7c0,1.9-1.7,3.6-3.6,3.5c-1.9,0-3.6-1.6-3.6-3.5C546.2,97.5,547.7,95.9,549.7,95.8z"/><path d="M813.5,762.3c1.7,0,3.2,1.5,3.1,3.2c0,1.7-1.5,3.1-3.2,3.1c-1.7,0-3.2-1.4-3.1-3.2C810.4,763.8,811.8,762.4,813.5,762.3z"/><path d="M890.3,349.7c0,1.7-1.5,3.2-3.2,3.1c-1.7,0-3.1-1.5-3.1-3.2c0-1.7,1.4-3.2,3.2-3.1C888.9,346.5,890.3,348,890.3,349.7z"/><path d="M773,189.5c-1.7,0-3.2-1.4-3.2-3.1c-0.1-1.7,1.3-3.2,3.1-3.2c1.7,0,3.2,1.4,3.2,3.1C776.2,188,774.7,189.5,773,189.5z"/><path d="M134.2,311.4c0,1.7-1.4,3.2-3.1,3.2c-1.7,0.1-3.2-1.3-3.2-3.1c0-1.7,1.4-3.2,3.1-3.2C132.7,308.2,134.2,309.7,134.2,311.4z"/><path d="M911.9,496.3c0,1.7-1.5,3.2-3.1,3.2c-1.7,0-3.2-1.4-3.2-3.1c0-1.7,1.5-3.1,3.2-3.2C910.5,493.2,911.9,494.6,911.9,496.3z"/><path d="M642.7,118.8c-1.7,0.1-3.2-1.3-3.3-3c-0.1-1.7,1.3-3.3,3-3.3c1.7-0.1,3.2,1.4,3.3,3C645.8,117.2,644.5,118.7,642.7,118.8z"/><path d="M359.9,112.9c0,1.7-1.5,3.1-3.2,3.2c-1.7,0-3.2-1.4-3.2-3.1c0-1.7,1.5-3.2,3.1-3.2C358.4,109.8,359.9,111.3,359.9,112.9z"/><path d="M553.1,909.6c0,1.7-1.5,3.1-3.2,3.2c-1.7,0-3.2-1.4-3.1-3.1c0-1.7,1.5-3.2,3.2-3.2C551.6,906.4,553.1,907.9,553.1,909.6z"/><path d="M876.2,678.7c1.4,0,2.6,1.2,2.6,2.5c0,1.5-1.3,2.8-2.8,2.7c-1.3-0.1-2.4-1.3-2.4-2.7C873.7,679.7,874.8,678.6,876.2,678.7z"/><path d="M112.1,686.9c1.4,0,2.6,1.1,2.6,2.5c0.1,1.5-1.2,2.8-2.7,2.7c-1.4,0-2.5-1.2-2.5-2.6C109.6,688.1,110.7,686.9,112.1,686.9z"/><path d="M919.6,450.1c0,1.4-1.1,2.6-2.4,2.7c-1.5,0.1-2.8-1.2-2.8-2.7c0-1.3,1.2-2.5,2.6-2.5C918.4,447.6,919.5,448.7,919.6,450.1z"/><path d="M84.9,588.8c0.1,1.3-1,2.6-2.3,2.8c-1.5,0.2-2.8-1-2.8-2.6c0-1.4,1.1-2.5,2.5-2.6C83.5,586.3,84.8,587.4,84.9,588.8z"/><path d="M150.3,741.3c1.3,0,2.5,1.2,2.5,2.6c0,1.4-1,2.6-2.4,2.6c-1.5,0-2.8-1.2-2.7-2.7C147.8,742.4,149,741.3,150.3,741.3z"/><path d="M190.7,797.9c0.1,1.4-1,2.6-2.4,2.7c-1.5,0.1-2.8-1.1-2.8-2.6c0-1.3,1.2-2.5,2.5-2.5C189.5,795.4,190.7,796.5,190.7,797.9z"/><path d="M139.4,267.9c-1.4,0-2.6-1.1-2.6-2.4c0-1.4,1.1-2.6,2.4-2.7c1.5-0.1,2.8,1.2,2.8,2.7C141.9,266.7,140.8,267.9,139.4,267.9z"/><path d="M272.5,863.3c-1.4,0-2.6-1.1-2.7-2.4c-0.1-1.5,1.2-2.8,2.7-2.7c1.3,0.1,2.5,1.3,2.5,2.6C275,862.2,273.9,863.3,272.5,863.3 z"/><path d="M691.2,124.1c0,1.4-1.2,2.5-2.6,2.4c-1.4,0-2.6-1.2-2.6-2.5c0-1.5,1.3-2.8,2.8-2.6C690.2,121.4,691.3,122.7,691.2,124.1z"/><path d="M460.2,83.2c-0.1,1.4-1.2,2.5-2.6,2.5c-1.5,0-2.7-1.4-2.6-2.8c0.1-1.3,1.4-2.4,2.8-2.3C459.2,80.6,460.3,81.8,460.2,83.2z"/><path d="M598.7,917.8c0.1,1.3-1,2.5-2.4,2.7c-1.4,0.1-2.6-0.9-2.7-2.3c-0.1-1.5,1.1-2.9,2.5-2.9 C597.4,915.3,598.6,916.4,598.7,917.8z"/><path d="M925.4,405.9c-1.1-0.1-1.9-0.7-1.9-1.9c0-1.2,0.8-1.8,1.9-1.8c1,0,1.6,0.6,1.7,1.7C927.2,405.1,926.5,405.7,925.4,405.9z"/><path d="M60.2,440.1c1.3,0.1,2,0.8,1.9,1.9c-0.1,1-0.7,1.7-1.7,1.7c-1.2,0.1-1.9-0.6-1.9-1.8C58.5,440.7,59.3,440.2,60.2,440.1z"/><path d="M922.2,691.3c-1.2-0.2-1.8-0.9-1.7-2.1c0.1-1,0.7-1.6,1.8-1.6c1.2,0,1.9,0.7,1.8,1.8C924.1,690.7,923.3,691.3,922.2,691.3z"/><path d="M52.6,489.9c-1.2-0.1-2-0.6-2-1.8c0-1.1,0.7-1.8,1.9-1.8c1,0,1.6,0.7,1.7,1.6C54.3,489.1,53.6,489.7,52.6,489.9z"/><path d="M896.9,303.6c-0.2,1.2-0.9,1.8-2,1.7c-1-0.1-1.6-0.7-1.6-1.7c0-1.2,0.7-1.9,1.8-1.9C896.3,301.7,896.9,302.5,896.9,303.6z"/><path d="M861.8,773.8c-0.2,1.1-0.8,1.8-2,1.8c-1.2-0.1-1.7-0.9-1.6-2c0.1-1,0.7-1.6,1.8-1.6C861.1,772,861.7,772.7,861.8,773.8z"/><path d="M948.7,550.9c-0.2,1.1-0.9,1.8-2,1.7c-1.2-0.1-1.7-0.9-1.6-2.1c0.1-1,0.8-1.6,1.8-1.5C948.1,549,948.7,549.7,948.7,550.9z"/><path d="M86.8,303.2c-0.2,1.2-0.8,1.9-2,1.7c-1.1-0.1-1.8-0.9-1.6-2.1c0.1-1,0.8-1.6,1.8-1.6C86.1,301.4,86.7,302.1,86.8,303.2z"/><path d="M511.7,46.8c-1.1-0.2-1.8-0.9-1.7-2c0.1-1.2,0.9-1.7,2.1-1.6c1,0.1,1.6,0.8,1.5,1.8C513.5,46.1,512.8,46.7,511.7,46.8z"/><path d="M142.2,791.9c-1.2,0-2-0.6-2-1.7c0-1.2,0.7-1.9,1.8-1.9c1,0,1.7,0.6,1.8,1.6C143.9,791,143.3,791.7,142.2,791.9z"/><path d="M67.8,681.3c-0.2,1.2-0.9,1.8-2.1,1.7c-1-0.1-1.6-0.7-1.6-1.7c0-1.2,0.7-1.9,1.8-1.9C67.2,679.4,67.8,680.2,67.8,681.3z"/><path d="M558.1,51.4c1.3,0.1,2,0.8,1.9,1.9c0,1-0.6,1.7-1.6,1.7c-1.2,0.1-1.9-0.5-2-1.7C556.4,52.2,557.2,51.6,558.1,51.4z"/><path d="M45.9,534.3c-0.1,1.3-0.7,2-1.9,2c-1,0-1.7-0.6-1.7-1.6c-0.1-1.2,0.5-1.9,1.7-2C45.2,532.6,45.7,533.4,45.9,534.3z"/><path d="M105.7,735.8c-0.2,1.2-0.9,1.8-2.1,1.7c-1-0.1-1.6-0.7-1.6-1.8c0-1.2,0.7-1.9,1.8-1.8C105,733.9,105.6,734.7,105.7,735.8z"/><path d="M606.2,61.6c-0.2,1.1-0.8,1.8-2,1.8c-1.2-0.1-1.7-0.9-1.6-2c0.1-1,0.7-1.6,1.8-1.6C605.5,59.7,606.1,60.4,606.2,61.6z"/><path d="M366.9,66.8c-0.1,1.1-0.6,1.9-1.8,1.9c-1.1,0-1.8-0.7-1.8-1.9c0-1,0.7-1.6,1.6-1.7C366,65,366.7,65.5,366.9,66.8z"/><path d="M855.4,249.1c0.1-1.1,0.6-1.9,1.8-1.9c1.1,0,1.8,0.7,1.8,1.9c0,1-0.7,1.6-1.6,1.7C856.3,251,855.6,250.4,855.4,249.1z"/><path d="M650.6,71.3c-1.1-0.1-1.9-0.7-1.9-1.8c0-1.2,0.7-1.8,1.9-1.8c1,0,1.7,0.6,1.7,1.6C652.4,70.5,651.8,71.1,650.6,71.3z"/><path d="M803.7,812.1c0.1-1.1,0.6-1.9,1.8-1.9c1.1,0,1.8,0.7,1.8,1.9c0,1-0.7,1.6-1.6,1.7C804.5,813.9,803.8,813.3,803.7,812.1z"/><path d="M411.1,73c1.1,0.1,1.9,0.7,1.8,1.9c0,1.1-0.8,1.8-1.9,1.8c-1,0-1.6-0.7-1.7-1.7C409.3,73.8,409.9,73.1,411.1,73z"/><path d="M696.6,79.6c-1.2-0.1-1.8-0.8-1.8-1.9c0.1-1,0.7-1.7,1.7-1.7c1.2,0,1.9,0.6,1.9,1.8C698.5,79,697.7,79.5,696.6,79.6z"/><path d="M734.8,130.4c1.1,0.2,1.8,0.8,1.8,2c0,1-0.6,1.6-1.7,1.7c-1.2,0.1-1.9-0.6-1.9-1.7C733,131.2,733.7,130.5,734.8,130.4z"/><path d="M266.3,96.6c-0.1,1.1-0.7,1.9-1.8,1.9c-1.2,0-1.8-0.7-1.8-1.9c0-1,0.6-1.7,1.6-1.7C265.4,94.8,266.1,95.4,266.3,96.6z"/><path d="M312.4,104.6c-0.1,1.1-0.6,1.9-1.8,1.9c-1.1,0-1.8-0.7-1.8-1.9c0-1,0.7-1.6,1.6-1.7C311.6,102.8,312.3,103.4,312.4,104.6z"/><path d="M930.6,645.2c-1.2-0.2-1.9-0.9-1.8-2c0.1-1.1,0.9-1.8,2.1-1.6c1,0.1,1.5,0.8,1.5,1.8C932.4,644.6,931.7,645.1,930.6,645.2z"/><path d="M147.5,217c1.2,0.1,2,0.6,2,1.8c0,1.1-0.7,1.8-1.9,1.8c-1,0-1.6-0.7-1.7-1.6C145.7,217.9,146.4,217.2,147.5,217z"/><path d="M178.3,844.7c0.1-1.2,0.6-2,1.8-2c1.1,0,1.8,0.7,1.8,1.9c0,1-0.7,1.6-1.6,1.7C179.2,846.4,178.5,845.8,178.3,844.7z"/><path d="M752.9,849.9c-0.2,1.2-0.9,1.8-2,1.7c-1-0.1-1.6-0.7-1.6-1.7c0-1.2,0.7-1.9,1.8-1.9C752.2,848.1,752.8,848.8,752.9,849.9z"/><path d="M820.9,194.5c0,1.2-0.6,2-1.8,2c-1,0-1.7-0.5-1.8-1.5c-0.2-1.2,0.5-1.9,1.6-2.1C820.1,192.7,820.7,193.4,820.9,194.5z"/><path d="M228.1,852.5c-0.1,1.2-0.8,1.8-1.9,1.8c-1-0.1-1.7-0.7-1.7-1.7c0-1.2,0.6-1.9,1.8-1.9C227.5,850.6,228,851.4,228.1,852.5z"/><path d="M799,858.1c-0.1,1.2-0.8,1.9-2,1.8c-1.1-0.1-1.8-0.9-1.7-2c0.1-1,0.8-1.6,1.8-1.6C798.4,856.3,799,857,799,858.1z"/><path d="M75.8,635c-0.1,1.1-0.7,1.9-1.8,1.9c-1.2,0-1.8-0.7-1.8-1.9c0-1,0.6-1.7,1.6-1.7C74.9,633.2,75.6,633.8,75.8,635z"/><path d="M78.8,349.7c-0.1,1.2-0.8,1.9-2,1.8c-1.1-0.1-1.8-0.9-1.7-2c0.1-1,0.8-1.6,1.8-1.6C78.1,347.8,78.7,348.5,78.8,349.7z"/><path d="M211.9,134.9c-0.1,1.1-0.7,1.8-1.9,1.8c-1,0-1.7-0.6-1.8-1.6c-0.1-1.1,0.5-1.9,1.7-2C211.1,133,211.7,133.7,211.9,134.9z"/><path d="M780.8,138.4c1.1,0.1,1.9,0.6,1.9,1.8c0,1.2-0.7,1.8-1.8,1.8c-1,0-1.7-0.6-1.8-1.6C779,139.3,779.6,138.6,780.8,138.4z"/><path d="M258,142.7c0,1.1-0.6,1.9-1.8,1.9c-1,0-1.7-0.5-1.9-1.5c-0.2-1.2,0.5-1.9,1.6-2.1C257.1,140.9,257.8,141.6,258,142.7z"/><path d="M201.7,182.9c-1.1-0.2-1.8-0.9-1.7-2c0.1-1.2,0.9-1.7,2.1-1.6c1,0.1,1.6,0.8,1.5,1.8C203.5,182.2,202.8,182.8,201.7,182.9z"/><path d="M955.2,502.8c1.3,0.3,1.9,1,1.8,2.1c-0.1,1-0.8,1.6-1.8,1.5c-1.2,0-1.9-0.7-1.8-1.9C953.4,503.4,954.3,502.9,955.2,502.8z"/><path d="M694.8,888.1c0-1.2,0.6-1.9,1.8-1.9c1,0,1.7,0.5,1.8,1.5c0.2,1.2-0.5,1.9-1.6,2.1C695.7,889.9,695,889.2,694.8,888.1z"/><path d="M938.7,599.1c-1.1-0.1-1.9-0.7-1.9-1.8c0-1.2,0.7-1.8,1.9-1.8c1,0,1.7,0.6,1.7,1.6C940.5,598.2,939.9,598.9,938.7,599.1z"/><path d="M742.9,898.1c-1.2-0.1-2-0.6-2-1.8c0-1.1,0.7-1.8,1.9-1.8c1,0,1.6,0.7,1.7,1.6C744.7,897.3,744,898,742.9,898.1z"/><path d="M869.7,727.7c-0.1,1.1-0.7,1.8-1.9,1.8c-1,0-1.7-0.6-1.8-1.6c-0.1-1.1,0.5-1.9,1.7-2C868.9,725.8,869.5,726.5,869.7,727.7z"/><path d="M266.3,907c-0.2,1.2-0.9,1.8-2.1,1.7c-1-0.1-1.6-0.7-1.6-1.7c0-1.2,0.7-1.9,1.8-1.9C265.7,905.1,266.2,905.9,266.3,907z"/><path d="M933.4,356.1c1.2,0.2,1.8,0.9,1.7,2.1c-0.1,1-0.7,1.6-1.7,1.6c-1.2,0-1.9-0.7-1.9-1.8C931.5,356.8,932.3,356.2,933.4,356.1 z"/><path d="M312.4,915.2c-0.1,1.1-0.7,1.9-1.9,1.8c-1.1,0-1.8-0.8-1.8-1.9c0-1,0.7-1.6,1.7-1.7C311.7,913.3,312.3,914,312.4,915.2z"/><path d="M66.8,396c0.1-1.2,0.6-2,1.8-2c1.1,0,1.8,0.7,1.8,1.9c0,1-0.7,1.6-1.6,1.7C67.7,397.7,67,397,66.8,396z"/><path d="M358.6,923.2c-0.2,1.1-0.8,1.9-2,1.8c-1.2-0.1-1.8-0.9-1.7-2c0.1-1,0.7-1.6,1.7-1.6C357.9,921.4,358.5,922,358.6,923.2z"/><path d="M644,926.2c-0.1,1.1-0.7,1.8-1.9,1.8c-1,0-1.7-0.6-1.7-1.6c-0.1-1.2,0.5-1.9,1.7-2C643.2,924.3,643.8,925,644,926.2z"/><path d="M404.7,931.5c-0.1,1.2-0.8,1.8-1.9,1.8c-1-0.1-1.7-0.7-1.7-1.7c-0.1-1.2,0.6-1.9,1.8-1.9 C404,929.6,404.6,930.4,404.7,931.5z"/><path d="M449.5,941.6c-1.3-0.2-2-0.8-1.9-2c0.1-1.2,0.9-1.8,2-1.7c1,0.1,1.6,0.7,1.6,1.7C451.2,940.9,450.4,941.4,449.5,941.6z"/><path d="M495.5,949.6c-1.3-0.2-1.9-0.9-1.8-2.1c0.1-1,0.7-1.6,1.8-1.6c1.2,0,1.9,0.7,1.9,1.8C497.3,948.9,496.4,949.4,495.5,949.6z"/><path d="M543.5,955.9c0,1.1-0.6,1.9-1.8,1.9c-1,0-1.7-0.5-1.9-1.5c-0.2-1.2,0.5-1.9,1.6-2.1C542.6,954.1,543.2,954.8,543.5,955.9z"/></g></svg>